<svg width="15" height="15" viewBox="0 0 30 30" fill="none" xmlns="http://www.w3.org/2000/svg">
<path d="M15 2.5C10.1625 2.5 6.25 6.4125 6.25 11.25C6.25 13.425 6.875 15.4625 8.0125 17.3C9.2 19.225 10.7625 20.875 11.9625 22.8C12.55 23.7375 12.975 24.6125 13.425 25.625C13.75 26.3125 14.0125 27.5 15 27.5C15.9875 27.5 16.25 26.3125 16.5625 25.625C17.025 24.6125 17.4375 23.7375 18.025 22.8C19.225 20.8875 20.7875 19.2375 21.975 17.3C23.125 15.4625 23.75 13.425 23.75 11.25C23.75 6.4125 19.8375 2.5 15 2.5ZM15 14.6875C13.275 14.6875 11.875 13.2875 11.875 11.5625C11.875 9.8375 13.275 8.4375 15 8.4375C16.725 8.4375 18.125 9.8375 18.125 11.5625C18.125 13.2875 16.725 14.6875 15 14.6875Z" fill="white"/>
</svg>
