<svg width="17" height="17" viewBox="0 0 17 17" fill="none" xmlns="http://www.w3.org/2000/svg">
<path fill-rule="evenodd" clip-rule="evenodd" d="M16.66 8.69274C16.66 8.09001 16.6059 7.51047 16.5055 6.9541H8.5V10.2421H13.0745C12.8775 11.3046 12.2786 12.2048 11.3784 12.8075V14.9402H14.1255C15.7327 13.4605 16.66 11.2814 16.66 8.69274Z" fill="#4285F4"/>
<path fill-rule="evenodd" clip-rule="evenodd" d="M8.49996 17.0002C10.795 17.0002 12.7191 16.2391 14.1254 14.9409L11.3784 12.8082C10.6172 13.3182 9.6436 13.6196 8.49996 13.6196C6.2861 13.6196 4.41223 12.1243 3.74383 10.1152H0.904053V12.3175C2.30269 15.0955 5.17723 17.0002 8.49996 17.0002Z" fill="#34A853"/>
<path fill-rule="evenodd" clip-rule="evenodd" d="M3.74386 10.1149C3.57386 9.60489 3.47727 9.06012 3.47727 8.49989C3.47727 7.93966 3.57386 7.39489 3.74386 6.88489V4.68262H0.904091C0.328409 5.83012 0 7.1283 0 8.49989C0 9.87148 0.328409 11.1697 0.904091 12.3172L3.74386 10.1149Z" fill="#FBBC05"/>
<path fill-rule="evenodd" clip-rule="evenodd" d="M8.49996 3.38068C9.74792 3.38068 10.8684 3.80955 11.7493 4.65182L14.1872 2.21386C12.7152 0.842273 10.7911 0 8.49996 0C5.17723 0 2.30269 1.90477 0.904053 4.68273L3.74383 6.885C4.41223 4.87591 6.2861 3.38068 8.49996 3.38068Z" fill="#EA4335"/>
</svg>
