<svg width="20" height="20" viewBox="0 0 17 15" fill="none" xmlns="http://www.w3.org/2000/svg">
<path fill-rule="evenodd" clip-rule="evenodd" d="M8.54761 13.9291C8.36008 14.1166 8.10577 14.2219 7.84061 14.2219C7.57544 14.2219 7.32113 14.1166 7.13361 13.9291L1.13361 7.92909C0.946136 7.74156 0.84082 7.48725 0.84082 7.22209C0.84082 6.95692 0.946136 6.70261 1.13361 6.51509L7.13361 0.515087C7.32221 0.332929 7.57481 0.232134 7.83701 0.234413C8.0992 0.236691 8.35002 0.34186 8.53543 0.527268C8.72083 0.712676 8.826 0.963489 8.82828 1.22569C8.83056 1.48788 8.72976 1.74048 8.54761 1.92909L4.25461 6.22209H15.8406C16.1058 6.22209 16.3602 6.32744 16.5477 6.51498C16.7353 6.70252 16.8406 6.95687 16.8406 7.22209C16.8406 7.4873 16.7353 7.74166 16.5477 7.92919C16.3602 8.11673 16.1058 8.22209 15.8406 8.22209H4.25461L8.54761 12.5151C8.73508 12.7026 8.84039 12.9569 8.84039 13.2221C8.84039 13.4873 8.73508 13.7416 8.54761 13.9291Z" fill="#FFFFFF"/>
</svg>
