<svg width="199" height="143" viewBox="0 0 199 143" fill="none" xmlns="http://www.w3.org/2000/svg">
<g filter="url(#filter0_d_949_3432)">
<path d="M39.9087 133.61H27.1327C25.2231 133.61 23.6696 132.057 23.6696 130.147V92.6469C23.6696 90.7372 25.2231 89.1836 27.1327 89.1836H39.9087C41.8182 89.1836 43.3718 90.7372 43.3718 92.6469V130.147C43.3718 132.057 41.8183 133.61 39.9087 133.61Z" fill="#3F3D56"/>
<path d="M165.076 133.685H152.3C150.39 133.685 148.837 132.131 148.837 130.221V92.7211C148.837 90.8114 150.39 89.2578 152.3 89.2578H165.076C166.986 89.2578 168.539 90.8114 168.539 92.7211V130.221C168.539 132.131 166.986 133.685 165.076 133.685Z" fill="#3F3D56"/>
<path d="M42.9375 40.4303L24.1239 67.1511C21.8537 70.3755 20.9536 74.3681 21.6207 78.2547L27.3386 111.568C28.5667 118.723 34.7707 123.953 42.0305 123.953H152.586C160.465 123.953 166.983 117.821 167.465 109.957L169.671 73.9155C169.934 69.6249 168.332 65.4297 165.275 62.4067L138.886 36.3021C135.989 33.4368 132.046 31.882 127.973 31.9994L54.6967 34.1115C50.0002 34.2469 45.6424 36.5886 42.9375 40.4303Z" fill="#82818D"/>
<path d="M45.8032 45.1742L42.206 51.9003C39.9138 56.1864 43.2559 61.2478 48.341 61.1913L138.4 60.1909C143.932 60.1295 147.048 54.1667 143.739 49.9729L138.069 42.7846C136.761 41.1269 134.687 40.1667 132.501 40.2063L51.7096 41.6688C49.2045 41.7141 46.9326 43.0625 45.8032 45.1742Z" fill="white"/>
<path d="M158.537 59.2101C157.955 59.2101 157.388 58.9943 156.953 58.6004C156.46 58.1541 156.177 57.5166 156.177 56.8514L156.177 55.3729L156.474 48.5592C156.529 47.2938 157.564 46.3027 158.83 46.3027H168.206C169.079 46.3027 169.876 46.7811 170.287 47.5515L171.404 49.6461C171.757 50.3085 171.777 51.0782 171.458 51.7576C171.14 52.4374 170.536 52.9143 169.801 53.066L162.732 54.5286C162.002 54.6795 161.425 55.2209 161.229 55.9415L160.812 57.472C160.556 58.408 159.736 59.1018 158.77 59.1984C158.693 59.2063 158.615 59.2101 158.537 59.2101Z" fill="#82818D"/>
<path d="M31.893 59.1984C30.9276 59.1018 30.1072 58.408 29.8518 57.472L29.4343 55.9415C29.238 55.2209 28.6619 54.6795 27.9311 54.5286L20.8629 53.066C20.128 52.9143 19.5236 52.4374 19.205 51.7576C18.8864 51.0781 18.9062 50.3085 19.2593 49.6461L20.3764 47.5515C20.7874 46.7811 21.585 46.3027 22.458 46.3027H31.8334C33.0998 46.3027 34.1349 47.2938 34.19 48.5592L34.4863 55.3729L34.4865 56.8514C34.4865 57.5166 34.2035 58.1541 33.7104 58.6004C33.2753 58.9943 32.7086 59.2101 32.1267 59.2101C32.049 59.2101 31.9709 59.2063 31.893 59.1984Z" fill="#82818D"/>
<path d="M44.917 88.4115C50.0376 88.4115 54.1887 84.2604 54.1887 79.1398C54.1887 74.0192 50.0376 69.8682 44.917 69.8682C39.7964 69.8682 35.6454 74.0192 35.6454 79.1398C35.6454 84.2604 39.7964 88.4115 44.917 88.4115Z" fill="white"/>
<path d="M151.734 88.6048C156.855 88.6048 161.006 84.4538 161.006 79.3332C161.006 74.2126 156.855 70.0615 151.734 70.0615C146.614 70.0615 142.463 74.2126 142.463 79.3332C142.463 84.4538 146.614 88.6048 151.734 88.6048Z" fill="white"/>
</g>
<g filter="url(#filter1_d_949_3432)">
<path d="M32.5756 29.6071C33.4294 30.085 34.1563 30.7604 34.6955 31.5769L40.7836 35.1971L51.1278 40.0422C51.1278 40.0422 53.5674 31.37 56.4819 30.8161C59.3965 30.2623 64.2049 36.6894 64.2049 36.6894C64.2049 36.6894 55.8228 50.2615 52.1715 48.8699C48.5202 47.4783 40.362 40.72 40.362 40.72L39.2963 39.854L32.5181 35.3448C31.5412 35.2854 30.5927 34.9928 29.7521 34.4916C27.6321 33.2669 26.5456 31.1803 27.3252 29.8314C28.1048 28.4823 30.455 28.3817 32.5756 29.6071Z" fill="#9F616A"/>
<path d="M52.7382 33.371L58.0281 27.1436L61.2239 27.604C65.1439 28.1687 67.3231 32.4445 65.4766 35.9481L63.6354 39.4418L52.7382 33.371Z" fill="#E5E5E5"/>
</g>
<g filter="url(#filter2_d_949_3432)">
<path d="M35.9624 40.7726L26.9336 28.4065C26.7997 28.2239 26.8325 27.968 27.008 27.824L29.1739 26.0471C29.2678 25.9701 29.3909 25.9361 29.5113 25.9538C29.6316 25.9716 29.7399 26.0391 29.8077 26.1402L38.7785 39.5163C38.8524 39.6261 38.871 39.7612 38.8299 39.8869C38.7885 40.0128 38.6931 40.1112 38.5678 40.1569L36.4602 40.9232C36.3052 40.9797 36.1322 40.9418 36.015 40.8319C35.9959 40.814 35.9781 40.7942 35.9624 40.7726Z" fill="#3F3D56"/>
</g>
<g filter="url(#filter3_d_949_3432)">
<path d="M36.2689 40.7484L26.949 28.1023C26.8108 27.9156 26.8204 27.6723 26.9706 27.5486L28.8239 26.0219C28.9042 25.9557 29.0149 25.9334 29.1274 25.9605C29.2397 25.9877 29.3449 26.0617 29.4157 26.1645L38.7635 39.7768C38.8406 39.8885 38.8686 40.02 38.8408 40.1374C38.8129 40.255 38.7328 40.3415 38.621 40.3749L36.7399 40.935C36.6017 40.9763 36.4391 40.9253 36.3222 40.8098C36.3031 40.791 36.2851 40.7706 36.2689 40.7484Z" fill="#E5E5E5"/>
</g>
<g filter="url(#filter4_d_949_3432)">
<path d="M32.4319 118.838L28.2422 127.879L21.4062 124.792L26.6986 117.956L32.4319 118.838Z" fill="#9F616A"/>
<path d="M25.3756 125.013L30.4474 124.351C30.4474 124.351 33.9756 132.731 31.3294 133.172C28.6833 133.613 7.95496 135.597 7.95496 132.951C7.95496 130.305 16.555 126.997 16.555 126.997L22.5089 122.808L25.3756 125.013Z" fill="#2F2E41"/>
<path d="M65.2886 60.6225C65.2886 60.6225 71.463 69.8841 58.2322 75.6175L44.1193 95.9048L32.4321 121.264L25.3756 118.618L37.7244 80.2483L44.7808 63.0482L48.0885 57.7559L65.2886 60.6225Z" fill="#2F2E41"/>
</g>
<g filter="url(#filter5_d_949_3432)">
<path d="M29.3459 117.32L24.5757 126.069L17.9556 122.543L23.6823 116.066L29.3459 117.32Z" fill="#9F616A"/>
<path d="M21.9021 123.021L27.0063 122.692C27.0063 122.692 29.9807 131.283 27.3114 131.551C24.6422 131.819 3.82856 132.448 4.00107 129.807C4.17357 127.167 12.971 124.426 12.971 124.426L19.1853 120.634L21.9021 123.021Z" fill="#2F2E41"/>
<path d="M65.9279 61.3706C65.9279 61.3706 71.4853 71.015 57.9089 75.8736L42.5035 95.1977L29.1879 119.741L22.319 116.64L37.1428 79.1576L45.3056 62.4541L48.9513 57.3887L65.9279 61.3706Z" fill="#2F2E41"/>
</g>
<g filter="url(#filter6_d_949_3432)">
<path d="M60.3576 18.0183L56.167 26.2275L67.3147 27.9619L67.1933 16.9248L60.3576 18.0183Z" fill="#9F616A"/>
<path d="M62.6844 21.386C66.97 21.386 70.4443 17.9118 70.4443 13.6261C70.4443 9.34044 66.97 5.86621 62.6844 5.86621C58.3987 5.86621 54.9244 9.34044 54.9244 13.6261C54.9244 17.9118 58.3987 21.386 62.6844 21.386Z" fill="#9F616A"/>
</g>
<g filter="url(#filter7_d_949_3432)">
<path d="M66.9931 62.9492L68.2414 42.0017C69.3213 36.9877 68.9617 31.7559 67.2068 26.951L66.7781 21.9492L56.8845 22.6177L52.6906 29.6367L48.7116 46.2373L47.8513 57.3786L66.9931 62.9492Z" fill="#E5E5E5"/>
</g>
<g filter="url(#filter8_d_949_3432)">
<path d="M38.0303 47.2291C38.9992 47.0927 39.9866 47.1903 40.91 47.5137L47.9474 46.71L59.114 44.305C59.114 44.305 55.8063 35.9254 57.791 33.7203C59.7756 31.5152 67.4936 33.7203 67.4936 33.7203C67.4936 33.7203 69.0372 49.5973 65.2884 50.6999C61.5397 51.8024 50.955 51.3614 50.955 51.3614L49.5825 51.3171L41.4577 51.831C40.6441 52.375 39.7121 52.7162 38.7395 52.8262C36.3107 53.1347 34.1828 52.1315 33.9868 50.5858C33.7908 49.0401 35.6006 47.5374 38.0303 47.2291Z" fill="#9F616A"/>
<path d="M56.3577 38.0204L56.7987 29.8614L59.6212 28.2933C63.0833 26.3699 67.4061 28.4542 68.0572 32.3608L68.7064 36.2563L56.3577 38.0204Z" fill="#E5E5E5"/>
</g>
<g filter="url(#filter9_d_949_3432)">
<path d="M67.8942 17.9492C67.8942 17.9492 68.5762 14.2145 66.5302 13.9655C64.4842 13.7166 62.4382 9.23492 62.4382 9.23492C62.4382 9.23492 55.3783 7.8862 55.151 11.1229C54.9237 14.3597 55.0108 13.6403 55.0108 13.6403C55.0108 13.6403 53.3323 12.8658 54.0143 9.62906C54.2092 8.70428 54.6824 7.8608 55.259 7.12765C57.1123 4.77134 59.9593 3.65818 62.7802 4.01439C63.9748 4.16525 67.5316 5.40707 68.2187 6.25363C70.0373 8.49445 70.8495 15.4594 67.8942 17.9492Z" fill="#3F3D56"/>
</g>
<g filter="url(#filter10_d_949_3432)">
<path d="M43.5027 110.949C42.1494 110.949 40.9555 110.241 40.306 109.051C39.6528 107.854 39.7061 106.457 40.4485 105.314L42.8546 101.609C43.5296 100.57 44.6718 99.9492 45.9102 99.9492H150.561C151.628 99.9492 152.637 100.415 153.331 101.226L155.971 104.317C156.904 105.409 157.112 106.899 156.515 108.205C155.919 109.511 154.656 110.327 153.222 110.335L43.5246 110.949L43.5027 110.949Z" fill="#3F3D56"/>
</g>
<g filter="url(#filter11_d_949_3432)">
<path d="M169.097 65.4389C171.033 66.7055 173.256 66.7329 174.062 65.5004C174.868 64.2678 173.951 62.2423 172.014 60.9756C171.247 60.459 170.367 60.1335 169.449 60.0265L161.176 54.7637L158.789 58.6985L167.198 63.469C167.665 64.2678 168.316 64.9433 169.097 65.4389Z" fill="#FFB5B5"/>
<path d="M145.567 52.4701L165.862 62.96L167.628 58.1044L153.862 47.3209L152.945 31.5885C152.833 29.6673 151.87 27.9259 150.302 26.8105C148.734 25.6956 146.773 25.3567 144.921 25.881C141.625 26.8148 139.66 30.2682 140.541 33.5788L145.567 52.4701Z" fill="#E5E5E5"/>
<path d="M150.469 24.3177L151.418 18.3869L145.013 15.7773L144.064 24.7921L150.469 24.3177Z" fill="#FFB5B5"/>
<path d="M130.299 58.065C130.299 58.065 128.46 69.5577 135.815 70.9368C143.17 72.3159 159.95 73.2353 159.95 73.2353L181.556 99.4385L185.923 94.6116L167.305 65.88L152.365 56.4561L130.299 58.065Z" fill="#2F2E41"/>
<path d="M132.054 56.2031C132.054 56.2031 127.766 67.0231 134.647 69.9651C141.528 72.9071 157.708 77.4448 157.708 77.4448L173.115 107.711L178.425 103.947L166.484 71.8604L153.943 59.4196L132.054 56.2031Z" fill="#2F2E41"/>
<path d="M151.675 23.3567L143.4 21.9775L137.792 25.0992C134.528 29.8471 134.258 44.9061 133.488 50.6161L128.92 61.2824L143.4 59.2137L155.123 58.0644L151.215 32.5508L151.675 23.3567Z" fill="#E5E5E5"/>
<path d="M148.851 20.2921C152.458 20.2921 155.383 17.3677 155.383 13.7603C155.383 10.1529 152.458 7.22852 148.851 7.22852C145.243 7.22852 142.319 10.1529 142.319 13.7603C142.319 17.3677 145.243 20.2921 148.851 20.2921Z" fill="#FFB5B5"/>
<path d="M148.329 4.97889C148.518 5.08922 148.772 4.92229 148.832 4.712C148.893 4.50171 148.822 4.27843 148.752 4.07108C148.635 3.72314 148.517 3.3752 148.4 3.02725C148.15 2.28694 147.885 1.52076 147.343 0.957286C146.526 0.106814 145.228 -0.109541 144.059 0.0472003C142.558 0.248488 141.077 1.06131 140.379 2.40541C139.681 3.74951 139.978 5.62501 141.239 6.46359C139.442 8.52375 138.815 10.8197 138.914 13.552C139.013 16.2842 141.99 18.7988 143.932 20.7236C144.366 20.4607 144.76 19.2289 144.522 18.7814C144.283 18.3339 144.625 17.8154 144.329 17.4032C144.034 16.991 143.787 17.6474 144.086 17.2375C144.274 16.9789 143.539 16.3839 143.819 16.2291C145.173 15.4804 145.624 13.7921 146.474 12.4992C147.501 10.9397 149.257 9.88368 151.115 9.70848C152.139 9.61196 153.22 9.78677 154.06 10.3811C154.899 10.9755 155.442 12.0376 155.247 13.0474C155.751 12.5356 156.002 11.7857 155.908 11.0738C155.813 10.3618 155.375 9.70349 154.755 9.34118C155.132 8.09426 154.809 6.65994 153.934 5.69503C153.059 4.73012 149.508 4.89446 148.231 5.14841" fill="#2F2E41"/>
<path d="M148.131 9.74609C146.439 9.92877 145.217 11.3947 144.185 12.7484C143.59 13.5286 142.968 14.3903 142.982 15.3713C142.998 16.363 143.661 17.2136 143.978 18.1535C144.496 19.6898 143.991 21.5176 142.758 22.5702C143.976 22.8014 145.293 21.8879 145.503 20.6657C145.748 19.243 144.67 17.8699 144.798 16.4319C144.91 15.165 145.908 14.19 146.757 13.2427C147.606 12.2955 148.403 11.0385 148.013 9.82807" fill="#2F2E41"/>
<path d="M163.905 66.6674C165.842 67.934 168.065 67.9614 168.871 66.7289C169.677 65.4963 168.76 63.4708 166.823 62.2041C166.056 61.6875 165.176 61.362 164.258 61.255L155.985 55.9922L153.598 59.9271L162.007 64.6975C162.473 65.4964 163.124 66.1718 163.905 66.6674Z" fill="#FFB5B5"/>
<path d="M140.376 53.6976L160.671 64.1876L162.437 59.3319L148.67 48.5484L147.754 32.816C147.642 30.8948 146.679 29.1534 145.111 28.0381C143.543 26.9231 141.581 26.5842 139.73 27.1086C136.434 28.0423 134.468 31.4957 135.349 34.8064L140.376 53.6976Z" fill="#E5E5E5"/>
<path d="M173.846 103.651L174.315 103.92C174.315 103.92 177.533 102.081 179.142 103.92C180.751 105.759 181.901 110.356 181.901 110.356C181.901 110.356 188.566 115.872 184.659 115.872C181.717 115.872 174.738 112.616 171.467 111.006C170.423 110.492 169.937 109.271 170.343 108.18C170.681 107.271 171.119 106.317 171.557 105.988C172.017 105.644 172.304 104.897 172.477 104.236C172.633 103.637 173.308 103.344 173.846 103.651Z" fill="#2F2E41"/>
<path d="M182.81 94.917L183.28 95.1854C183.28 95.1854 186.498 93.3466 188.107 95.1854C189.716 97.0242 190.865 101.621 190.865 101.621C190.865 101.621 197.531 107.138 193.623 107.138C190.682 107.138 183.703 103.882 180.432 102.272C179.387 101.758 178.901 100.536 179.307 99.4457C179.646 98.5365 180.084 97.5825 180.522 97.2541C180.981 96.9093 181.269 96.1623 181.441 95.5015C181.597 94.9027 182.273 94.61 182.81 94.917Z" fill="#2F2E41"/>
</g>
<defs>
<filter id="filter0_d_949_3432" x="14.9795" y="31.9932" width="160.704" height="109.691" filterUnits="userSpaceOnUse" color-interpolation-filters="sRGB">
<feFlood flood-opacity="0" result="BackgroundImageFix"/>
<feColorMatrix in="SourceAlpha" type="matrix" values="0 0 0 0 0 0 0 0 0 0 0 0 0 0 0 0 0 0 127 0" result="hardAlpha"/>
<feOffset dy="4"/>
<feGaussianBlur stdDeviation="2"/>
<feComposite in2="hardAlpha" operator="out"/>
<feColorMatrix type="matrix" values="0 0 0 0 0 0 0 0 0 0 0 0 0 0 0 0 0 0 0.25 0"/>
<feBlend mode="normal" in2="BackgroundImageFix" result="effect1_dropShadow_949_3432"/>
<feBlend mode="normal" in="SourceGraphic" in2="effect1_dropShadow_949_3432" result="shape"/>
</filter>
<filter id="filter1_d_949_3432" x="23.0728" y="27.1436" width="47.0697" height="29.8262" filterUnits="userSpaceOnUse" color-interpolation-filters="sRGB">
<feFlood flood-opacity="0" result="BackgroundImageFix"/>
<feColorMatrix in="SourceAlpha" type="matrix" values="0 0 0 0 0 0 0 0 0 0 0 0 0 0 0 0 0 0 127 0" result="hardAlpha"/>
<feOffset dy="4"/>
<feGaussianBlur stdDeviation="2"/>
<feComposite in2="hardAlpha" operator="out"/>
<feColorMatrix type="matrix" values="0 0 0 0 0 0 0 0 0 0 0 0 0 0 0 0 0 0 0.25 0"/>
<feBlend mode="normal" in2="BackgroundImageFix" result="effect1_dropShadow_949_3432"/>
<feBlend mode="normal" in="SourceGraphic" in2="effect1_dropShadow_949_3432" result="shape"/>
</filter>
<filter id="filter2_d_949_3432" x="22.8513" y="25.9492" width="20" height="23" filterUnits="userSpaceOnUse" color-interpolation-filters="sRGB">
<feFlood flood-opacity="0" result="BackgroundImageFix"/>
<feColorMatrix in="SourceAlpha" type="matrix" values="0 0 0 0 0 0 0 0 0 0 0 0 0 0 0 0 0 0 127 0" result="hardAlpha"/>
<feOffset dy="4"/>
<feGaussianBlur stdDeviation="2"/>
<feComposite in2="hardAlpha" operator="out"/>
<feColorMatrix type="matrix" values="0 0 0 0 0 0 0 0 0 0 0 0 0 0 0 0 0 0 0.25 0"/>
<feBlend mode="normal" in2="BackgroundImageFix" result="effect1_dropShadow_949_3432"/>
<feBlend mode="normal" in="SourceGraphic" in2="effect1_dropShadow_949_3432" result="shape"/>
</filter>
<filter id="filter3_d_949_3432" x="22.8513" y="25.9492" width="20" height="23" filterUnits="userSpaceOnUse" color-interpolation-filters="sRGB">
<feFlood flood-opacity="0" result="BackgroundImageFix"/>
<feColorMatrix in="SourceAlpha" type="matrix" values="0 0 0 0 0 0 0 0 0 0 0 0 0 0 0 0 0 0 127 0" result="hardAlpha"/>
<feOffset dy="4"/>
<feGaussianBlur stdDeviation="2"/>
<feComposite in2="hardAlpha" operator="out"/>
<feColorMatrix type="matrix" values="0 0 0 0 0 0 0 0 0 0 0 0 0 0 0 0 0 0 0.25 0"/>
<feBlend mode="normal" in2="BackgroundImageFix" result="effect1_dropShadow_949_3432"/>
<feBlend mode="normal" in="SourceGraphic" in2="effect1_dropShadow_949_3432" result="shape"/>
</filter>
<filter id="filter4_d_949_3432" x="3.95496" y="57.7559" width="66.7726" height="84.5449" filterUnits="userSpaceOnUse" color-interpolation-filters="sRGB">
<feFlood flood-opacity="0" result="BackgroundImageFix"/>
<feColorMatrix in="SourceAlpha" type="matrix" values="0 0 0 0 0 0 0 0 0 0 0 0 0 0 0 0 0 0 127 0" result="hardAlpha"/>
<feOffset dy="4"/>
<feGaussianBlur stdDeviation="2"/>
<feComposite in2="hardAlpha" operator="out"/>
<feColorMatrix type="matrix" values="0 0 0 0 0 0 0 0 0 0 0 0 0 0 0 0 0 0 0.25 0"/>
<feBlend mode="normal" in2="BackgroundImageFix" result="effect1_dropShadow_949_3432"/>
<feBlend mode="normal" in="SourceGraphic" in2="effect1_dropShadow_949_3432" result="shape"/>
</filter>
<filter id="filter5_d_949_3432" x="0" y="57.3887" width="71.0541" height="82.4248" filterUnits="userSpaceOnUse" color-interpolation-filters="sRGB">
<feFlood flood-opacity="0" result="BackgroundImageFix"/>
<feColorMatrix in="SourceAlpha" type="matrix" values="0 0 0 0 0 0 0 0 0 0 0 0 0 0 0 0 0 0 127 0" result="hardAlpha"/>
<feOffset dy="4"/>
<feGaussianBlur stdDeviation="2"/>
<feComposite in2="hardAlpha" operator="out"/>
<feColorMatrix type="matrix" values="0 0 0 0 0 0 0 0 0 0 0 0 0 0 0 0 0 0 0.25 0"/>
<feBlend mode="normal" in2="BackgroundImageFix" result="effect1_dropShadow_949_3432"/>
<feBlend mode="normal" in="SourceGraphic" in2="effect1_dropShadow_949_3432" result="shape"/>
</filter>
<filter id="filter6_d_949_3432" x="50.9244" y="5.86621" width="23.5199" height="30.0957" filterUnits="userSpaceOnUse" color-interpolation-filters="sRGB">
<feFlood flood-opacity="0" result="BackgroundImageFix"/>
<feColorMatrix in="SourceAlpha" type="matrix" values="0 0 0 0 0 0 0 0 0 0 0 0 0 0 0 0 0 0 127 0" result="hardAlpha"/>
<feOffset dy="4"/>
<feGaussianBlur stdDeviation="2"/>
<feComposite in2="hardAlpha" operator="out"/>
<feColorMatrix type="matrix" values="0 0 0 0 0 0 0 0 0 0 0 0 0 0 0 0 0 0 0.25 0"/>
<feBlend mode="normal" in2="BackgroundImageFix" result="effect1_dropShadow_949_3432"/>
<feBlend mode="normal" in="SourceGraphic" in2="effect1_dropShadow_949_3432" result="shape"/>
</filter>
<filter id="filter7_d_949_3432" x="43.8513" y="21.9492" width="29" height="49" filterUnits="userSpaceOnUse" color-interpolation-filters="sRGB">
<feFlood flood-opacity="0" result="BackgroundImageFix"/>
<feColorMatrix in="SourceAlpha" type="matrix" values="0 0 0 0 0 0 0 0 0 0 0 0 0 0 0 0 0 0 127 0" result="hardAlpha"/>
<feOffset dy="4"/>
<feGaussianBlur stdDeviation="2"/>
<feComposite in2="hardAlpha" operator="out"/>
<feColorMatrix type="matrix" values="0 0 0 0 0 0 0 0 0 0 0 0 0 0 0 0 0 0 0.25 0"/>
<feBlend mode="normal" in2="BackgroundImageFix" result="effect1_dropShadow_949_3432"/>
<feBlend mode="normal" in="SourceGraphic" in2="effect1_dropShadow_949_3432" result="shape"/>
</filter>
<filter id="filter8_d_949_3432" x="29.9723" y="27.5674" width="42.7341" height="33.3145" filterUnits="userSpaceOnUse" color-interpolation-filters="sRGB">
<feFlood flood-opacity="0" result="BackgroundImageFix"/>
<feColorMatrix in="SourceAlpha" type="matrix" values="0 0 0 0 0 0 0 0 0 0 0 0 0 0 0 0 0 0 127 0" result="hardAlpha"/>
<feOffset dy="4"/>
<feGaussianBlur stdDeviation="2"/>
<feComposite in2="hardAlpha" operator="out"/>
<feColorMatrix type="matrix" values="0 0 0 0 0 0 0 0 0 0 0 0 0 0 0 0 0 0 0.25 0"/>
<feBlend mode="normal" in2="BackgroundImageFix" result="effect1_dropShadow_949_3432"/>
<feBlend mode="normal" in="SourceGraphic" in2="effect1_dropShadow_949_3432" result="shape"/>
</filter>
<filter id="filter9_d_949_3432" x="49.8513" y="3.94922" width="24" height="22" filterUnits="userSpaceOnUse" color-interpolation-filters="sRGB">
<feFlood flood-opacity="0" result="BackgroundImageFix"/>
<feColorMatrix in="SourceAlpha" type="matrix" values="0 0 0 0 0 0 0 0 0 0 0 0 0 0 0 0 0 0 127 0" result="hardAlpha"/>
<feOffset dy="4"/>
<feGaussianBlur stdDeviation="2"/>
<feComposite in2="hardAlpha" operator="out"/>
<feColorMatrix type="matrix" values="0 0 0 0 0 0 0 0 0 0 0 0 0 0 0 0 0 0 0.25 0"/>
<feBlend mode="normal" in2="BackgroundImageFix" result="effect1_dropShadow_949_3432"/>
<feBlend mode="normal" in="SourceGraphic" in2="effect1_dropShadow_949_3432" result="shape"/>
</filter>
<filter id="filter10_d_949_3432" x="35.8513" y="99.9492" width="125" height="19" filterUnits="userSpaceOnUse" color-interpolation-filters="sRGB">
<feFlood flood-opacity="0" result="BackgroundImageFix"/>
<feColorMatrix in="SourceAlpha" type="matrix" values="0 0 0 0 0 0 0 0 0 0 0 0 0 0 0 0 0 0 127 0" result="hardAlpha"/>
<feOffset dy="4"/>
<feGaussianBlur stdDeviation="2"/>
<feComposite in2="hardAlpha" operator="out"/>
<feColorMatrix type="matrix" values="0 0 0 0 0 0 0 0 0 0 0 0 0 0 0 0 0 0 0.25 0"/>
<feBlend mode="normal" in2="BackgroundImageFix" result="effect1_dropShadow_949_3432"/>
<feBlend mode="normal" in="SourceGraphic" in2="effect1_dropShadow_949_3432" result="shape"/>
</filter>
<filter id="filter11_d_949_3432" x="124.92" y="0" width="73.9318" height="123.872" filterUnits="userSpaceOnUse" color-interpolation-filters="sRGB">
<feFlood flood-opacity="0" result="BackgroundImageFix"/>
<feColorMatrix in="SourceAlpha" type="matrix" values="0 0 0 0 0 0 0 0 0 0 0 0 0 0 0 0 0 0 127 0" result="hardAlpha"/>
<feOffset dy="4"/>
<feGaussianBlur stdDeviation="2"/>
<feComposite in2="hardAlpha" operator="out"/>
<feColorMatrix type="matrix" values="0 0 0 0 0 0 0 0 0 0 0 0 0 0 0 0 0 0 0.25 0"/>
<feBlend mode="normal" in2="BackgroundImageFix" result="effect1_dropShadow_949_3432"/>
<feBlend mode="normal" in="SourceGraphic" in2="effect1_dropShadow_949_3432" result="shape"/>
</filter>
</defs>
</svg>
