<svg width="124" height="74" viewBox="0 0 124 74" fill="none" xmlns="http://www.w3.org/2000/svg">
<path d="M6.6 16.904V35H1.896V16.904H6.6ZM10.3804 35V16.904H15.0844L23.7724 27.968V16.904H28.4524V35H23.7724L15.0844 23.936V35H10.3804ZM40.4038 35V16.904H45.1078L53.7958 27.968V16.904H58.4758V35H53.7958L45.1078 23.936V35H40.4038ZM74.5312 25.952C74.5312 26.672 74.6673 27.336 74.9393 27.944C75.2113 28.552 75.5793 29.08 76.0433 29.528C76.5073 29.976 77.0433 30.328 77.6513 30.584C78.2753 30.824 78.9313 30.944 79.6193 30.944C80.3073 30.944 80.9553 30.824 81.5633 30.584C82.1873 30.328 82.7313 29.976 83.1953 29.528C83.6753 29.08 84.0513 28.552 84.3233 27.944C84.5953 27.336 84.7313 26.672 84.7313 25.952C84.7313 25.232 84.5953 24.568 84.3233 23.96C84.0513 23.352 83.6753 22.824 83.1953 22.376C82.7313 21.928 82.1873 21.584 81.5633 21.344C80.9553 21.088 80.3073 20.96 79.6193 20.96C78.9313 20.96 78.2753 21.088 77.6513 21.344C77.0433 21.584 76.5073 21.928 76.0433 22.376C75.5793 22.824 75.2113 23.352 74.9393 23.96C74.6673 24.568 74.5312 25.232 74.5312 25.952ZM69.6113 25.952C69.6113 24.608 69.8593 23.36 70.3553 22.208C70.8513 21.04 71.5393 20.024 72.4193 19.16C73.2993 18.296 74.3473 17.624 75.5633 17.144C76.7953 16.648 78.1473 16.4 79.6193 16.4C81.0753 16.4 82.4193 16.648 83.6513 17.144C84.8833 17.624 85.9393 18.296 86.8193 19.16C87.7153 20.024 88.4113 21.04 88.9073 22.208C89.4033 23.36 89.6513 24.608 89.6513 25.952C89.6513 27.296 89.4033 28.552 88.9073 29.72C88.4113 30.872 87.7153 31.88 86.8193 32.744C85.9393 33.608 84.8833 34.288 83.6513 34.784C82.4193 35.264 81.0753 35.504 79.6193 35.504C78.1473 35.504 76.7953 35.264 75.5633 34.784C74.3473 34.288 73.2993 33.608 72.4193 32.744C71.5393 31.88 70.8513 30.872 70.3553 29.72C69.8593 28.552 69.6113 27.296 69.6113 25.952ZM97.3266 16.904V26.744C97.3266 27.272 97.3426 27.816 97.3746 28.376C97.4226 28.92 97.5426 29.416 97.7346 29.864C97.9426 30.312 98.2626 30.68 98.6946 30.968C99.1266 31.24 99.7346 31.376 100.519 31.376C101.303 31.376 101.903 31.24 102.319 30.968C102.751 30.68 103.071 30.312 103.279 29.864C103.487 29.416 103.607 28.92 103.639 28.376C103.687 27.816 103.711 27.272 103.711 26.744V16.904H108.391V27.392C108.391 30.208 107.743 32.264 106.447 33.56C105.167 34.856 103.191 35.504 100.519 35.504C97.8466 35.504 95.8626 34.856 94.5666 33.56C93.2706 32.264 92.6226 30.208 92.6226 27.392V16.904H97.3266ZM119.057 20.888V35H114.353V20.888H110.489V16.904H122.921V20.888H119.057Z" fill="white"/>
<path d="M37 24H32V29H37V24Z" fill="white"/>
<path d="M67 24H62V29H67V24Z" fill="white"/>
<path d="M10.391 65.1886L30.4311 38L46.9677 38L37 55.2008L105.967 45.9068L105.967 40.0807L119 48.5424L109.47 61.027L108.069 55.2008C81.3022 60.2872 25.7504 70.9037 17.6783 72.6793C9.60619 74.4549 9.4567 68.4253 10.391 65.1886Z" stroke="#BB86FC" stroke-width="2"/>
<path d="M56.0345 4L49 14L59.8966 14L65 4L56.0345 4Z" stroke="#BB86FC" stroke-width="2"/>
<path d="M83.086 5.474C82.4967 4.75467 81.7687 4.395 80.902 4.395C80.5207 4.395 80.1653 4.46433 79.836 4.603C79.5153 4.74167 79.238 4.93233 79.004 5.175C78.77 5.409 78.5837 5.69067 78.445 6.02C78.315 6.34933 78.25 6.70467 78.25 7.086C78.25 7.476 78.315 7.83567 78.445 8.165C78.5837 8.49433 78.77 8.78033 79.004 9.023C79.2467 9.26567 79.5283 9.45633 79.849 9.595C80.1697 9.73367 80.5163 9.803 80.889 9.803C81.7037 9.803 82.436 9.45633 83.086 8.763V11.779L82.826 11.87C82.436 12.0087 82.072 12.1083 81.734 12.169C81.396 12.2383 81.0623 12.273 80.733 12.273C80.057 12.273 79.407 12.1473 78.783 11.896C78.1677 11.636 77.6217 11.2763 77.145 10.817C76.677 10.349 76.3 9.79867 76.014 9.166C75.728 8.52467 75.585 7.827 75.585 7.073C75.585 6.319 75.7237 5.63 76.001 5.006C76.287 4.37333 76.664 3.83167 77.132 3.381C77.6087 2.92167 78.159 2.56633 78.783 2.315C79.407 2.055 80.0613 1.925 80.746 1.925C81.136 1.925 81.5173 1.96833 81.89 2.055C82.2713 2.133 82.67 2.25867 83.086 2.432V5.474ZM87.9898 5.981H91.6688V2.198H94.2168V12H91.6688V7.957H87.9898V12H85.4418V2.198H87.9898V5.981ZM102.173 4.356H99.1439V5.994H102.004V8.152H99.1439V9.842H102.173V12H96.5959V2.198H102.173V4.356ZM111.394 5.474C110.805 4.75467 110.077 4.395 109.21 4.395C108.829 4.395 108.473 4.46433 108.144 4.603C107.823 4.74167 107.546 4.93233 107.312 5.175C107.078 5.409 106.892 5.69067 106.753 6.02C106.623 6.34933 106.558 6.70467 106.558 7.086C106.558 7.476 106.623 7.83567 106.753 8.165C106.892 8.49433 107.078 8.78033 107.312 9.023C107.555 9.26567 107.836 9.45633 108.157 9.595C108.478 9.73367 108.824 9.803 109.197 9.803C110.012 9.803 110.744 9.45633 111.394 8.763V11.779L111.134 11.87C110.744 12.0087 110.38 12.1083 110.042 12.169C109.704 12.2383 109.37 12.273 109.041 12.273C108.365 12.273 107.715 12.1473 107.091 11.896C106.476 11.636 105.93 11.2763 105.453 10.817C104.985 10.349 104.608 9.79867 104.322 9.166C104.036 8.52467 103.893 7.827 103.893 7.073C103.893 6.319 104.032 5.63 104.309 5.006C104.595 4.37333 104.972 3.83167 105.44 3.381C105.917 2.92167 106.467 2.56633 107.091 2.315C107.715 2.055 108.369 1.925 109.054 1.925C109.444 1.925 109.825 1.96833 110.198 2.055C110.579 2.133 110.978 2.25867 111.394 2.432V5.474ZM116.298 6.241L119.405 2.198H122.551L118.664 6.839L122.915 12H119.613L116.298 7.749V12H113.75V2.198H116.298V6.241Z" fill="white"/>
</svg>
