<svg width="24" height="24" viewBox="0 0 24 24" fill="none" xmlns="http://www.w3.org/2000/svg">
<path d="M11.0491 2.92708C11.3491 2.00608 12.6521 2.00608 12.9511 2.92708L14.4701 7.60108C14.5355 7.80157 14.6625 7.97626 14.8332 8.10018C15.0038 8.22411 15.2092 8.29092 15.4201 8.29108H20.3351C21.3041 8.29108 21.7061 9.53108 20.9231 10.1011L16.9471 12.9891C16.7763 13.1132 16.6492 13.2883 16.584 13.4891C16.5188 13.6899 16.5188 13.9063 16.5841 14.1071L18.1021 18.7811C18.4021 19.7031 17.3471 20.4691 16.5641 19.8991L12.5881 17.0111C12.4172 16.8869 12.2114 16.8199 12.0001 16.8199C11.7888 16.8199 11.583 16.8869 11.4121 17.0111L7.4361 19.8991C6.6531 20.4691 5.5981 19.7021 5.8981 18.7811L7.4161 14.1071C7.48137 13.9063 7.48141 13.6899 7.4162 13.4891C7.351 13.2883 7.22389 13.1132 7.0531 12.9891L3.0771 10.1011C2.2931 9.53108 2.6971 8.29108 3.6651 8.29108H8.5791C8.79014 8.29113 8.9958 8.22442 9.16662 8.10048C9.33744 7.97654 9.46467 7.80173 9.5301 7.60108L11.0491 2.92708Z" stroke="black" stroke-width="2" stroke-linecap="round" stroke-linejoin="round"/>
</svg>
